<?xml version="1.0" standalone="no"?>
<!DOCTYPE svg PUBLIC "-//W3C//DTD SVG 20010904//EN"
 "http://www.w3.org/TR/2001/REC-SVG-20010904/DTD/svg10.dtd">
<svg version="1.0" xmlns="http://www.w3.org/2000/svg"
 width="450.000000pt" height="300.000000pt" viewBox="0 0 450.000000 300.000000"
 preserveAspectRatio="xMidYMid meet">

<g transform="translate(0.000000,300.000000) scale(0.100000,-0.100000)"
fill="#000000" stroke="none">
<path d="M2030 2741 c-43 -9 -90 -33 -111 -57 -24 -28 -49 -80 -49 -104 0 -18
-6 -20 -57 -20 -57 0 -133 -26 -147 -49 -5 -7 -34 -9 -89 -5 -99 8 -153 -5
-197 -46 -26 -25 -31 -35 -26 -58 4 -15 8 -33 9 -40 1 -8 -19 -22 -49 -33 -63
-24 -138 -88 -164 -140 -39 -76 -20 -162 51 -235 l41 -42 -36 -53 c-68 -103
-83 -241 -36 -345 14 -33 16 -46 7 -48 -112 -32 -205 -107 -226 -183 -28 -99
-4 -191 69 -262 40 -38 129 -81 170 -81 18 0 18 -1 2 -29 -16 -29 -16 -31 7
-55 69 -73 330 -88 453 -25 45 23 65 54 48 74 -9 11 -7 15 12 19 105 22 134
32 171 60 50 38 66 75 50 116 -14 38 0 40 48 7 l34 -23 3 -92 c3 -93 -13 -186
-70 -401 -25 -97 -99 -248 -119 -243 -7 2 -18 -3 -24 -10 -16 -21 -45 -21 -46
-1 -1 13 -3 10 -9 -7 -8 -25 -8 -24 -9 5 -1 17 -6 37 -12 45 -8 12 -9 9 -5
-12 7 -29 -1 -58 -15 -58 -5 0 -9 10 -9 21 0 18 -2 19 -15 9 -8 -7 -15 -21
-15 -31 0 -23 -18 -25 -26 -4 -4 8 -10 12 -15 9 -5 -3 -9 -1 -9 4 0 18 -51 19
-85 2 -24 -12 -37 -14 -44 -7 -8 8 -11 5 -12 -9 0 -11 -3 -14 -6 -6 -4 10 -8
10 -18 2 -12 -10 -13 -5 -8 26 4 27 3 35 -5 30 -7 -4 -12 -18 -12 -32 0 -14
-4 -23 -9 -20 -5 4 -12 0 -14 -6 -3 -8 -6 -6 -6 5 -1 25 -21 21 -21 -5 -1 -23
-1 -23 -15 2 -8 14 -14 20 -15 13 0 -6 -9 -11 -20 -10 -14 1 -20 8 -20 24 0
14 -6 23 -15 23 -8 0 -15 -9 -15 -19 0 -11 -5 -23 -10 -26 -6 -4 -8 -11 -5
-16 3 -5 -1 -6 -9 -3 -10 4 -16 19 -16 38 l-1 31 -14 -30 c-13 -29 -13 -30
-15 -5 -1 24 -1 24 -15 6 -8 -11 -15 -14 -15 -7 0 7 -4 9 -10 6 -5 -3 -10 3
-10 14 0 11 -4 23 -10 26 -6 4 -8 -5 -4 -22 5 -24 2 -29 -15 -29 -12 0 -21 4
-21 9 0 5 -6 4 -14 -2 -16 -13 -28 -2 -44 44 -9 26 -11 27 -11 7 -1 -13 -5
-21 -10 -17 -16 9 -62 -17 -76 -44 l-14 -26 -1 25 c-1 23 -2 23 -10 5 -8 -19
-9 -19 -9 2 -1 33 -18 37 -26 6 -5 -23 -8 -25 -16 -11 -5 10 -17 14 -29 11
-12 -3 -22 0 -25 9 -6 16 -41 16 -72 0 -30 -16 -33 -15 -34 11 -1 20 -2 19
-15 -8 l-14 -30 5 31 c4 21 1 35 -10 44 -14 12 -16 11 -10 -13 8 -29 -2 -70
-15 -62 -4 3 -6 14 -3 25 9 34 -14 22 -33 -17 -16 -35 -18 -36 -23 -15 -3 13
-10 23 -16 24 -5 0 -21 4 -34 9 -18 7 -32 4 -58 -11 -19 -11 -39 -18 -44 -15
-5 4 -9 1 -9 -6 0 -8 -3 -9 -13 0 -8 6 -17 7 -22 3 -4 -4 -4 9 0 28 7 32 6 33
-9 21 -9 -8 -15 -19 -13 -25 3 -6 -1 -17 -9 -24 -10 -9 -15 -8 -23 6 -10 16
-10 16 -11 -2 0 -15 -3 -16 -15 -6 -13 11 -15 8 -16 -16 0 -28 -1 -29 -11 -6
-7 13 -17 21 -25 18 -9 -4 -13 4 -13 24 0 17 -5 30 -10 30 -6 0 -8 -10 -4 -24
4 -17 1 -27 -11 -33 -9 -5 -17 -23 -19 -39 -2 -16 -5 -30 -6 -31 -7 -8 -5 -29
3 -40 6 -9 5 -13 -3 -13 -9 0 -7 -7 5 -20 18 -20 31 -20 2045 -20 l2028 0 6
23 c3 12 6 33 6 46 0 20 -2 22 -15 11 -13 -11 -14 -10 -9 4 3 9 9 16 13 16 4
0 7 9 8 20 1 11 -3 20 -8 20 -6 0 -7 -4 -4 -10 3 -5 2 -10 -3 -10 -5 0 -14
-10 -20 -23 -10 -19 -11 -15 -6 23 3 27 2 40 -4 32 -6 -8 -14 -1 -26 25 -17
34 -19 36 -27 18 -4 -11 -8 -33 -9 -50 -1 -27 -3 -26 -16 16 -11 37 -18 45
-36 45 -17 -1 -24 5 -26 22 -2 14 2 22 11 22 16 0 29 57 15 66 -15 10 -9 44 7
38 19 -8 19 1 -1 32 -13 19 -15 38 -10 92 7 79 -8 113 -73 160 -78 56 -133 62
-281 27 -62 -14 -83 -15 -118 -6 -23 7 -40 16 -37 20 3 5 -2 12 -11 15 -9 4
-14 9 -11 13 9 9 -13 44 -24 38 -5 -4 -9 0 -9 8 0 18 -45 38 -66 30 -11 -4
-15 0 -14 13 4 35 0 42 -18 37 -12 -3 -22 4 -29 20 -6 13 -17 24 -25 24 -7 0
-41 4 -75 8 -52 6 -63 5 -63 -7 0 -16 -40 -38 -70 -38 -25 0 -80 -32 -80 -47
0 -7 -12 -16 -26 -19 -21 -5 -24 -10 -18 -28 4 -11 9 -54 11 -93 l5 -73 -41 0
c-33 0 -49 -7 -81 -36 -21 -20 -43 -33 -48 -30 -13 8 -62 -32 -59 -47 2 -13
-21 -13 -90 -2 -80 14 -133 -43 -133 -142 0 -30 5 -35 27 -32 11 1 24 -31 17
-42 -4 -8 -9 -7 -16 2 -7 10 -8 8 -3 -8 7 -27 -4 -75 -16 -67 -5 3 -9 14 -9
26 0 17 -2 18 -15 8 -8 -7 -15 -22 -16 -34 0 -11 -3 -15 -6 -8 -2 6 -12 12
-21 12 -9 0 -28 9 -42 20 -25 19 -25 19 -57 -6 -18 -14 -38 -22 -44 -18 -6 3
-15 0 -20 -7 -7 -12 -9 -12 -9 0 0 11 -3 11 -15 1 -18 -15 -18 -14 -6 28 6 18
6 30 2 28 -13 -8 -64 130 -58 156 3 13 13 43 22 68 26 69 17 157 -20 210 -62
88 -77 122 -71 169 8 59 26 76 108 102 50 16 77 31 99 57 l30 34 57 -17 c31
-9 62 -18 68 -20 6 -2 14 -17 17 -33 7 -36 47 -66 125 -95 80 -29 291 -31 372
-3 106 37 149 82 134 139 -5 21 -3 27 10 27 29 0 92 38 124 75 24 26 32 45 32
73 l0 38 80 12 c281 41 391 258 198 387 -24 16 -45 31 -47 32 -2 2 3 11 11 20
46 53 61 130 34 181 -38 72 -147 137 -252 150 l-59 7 3 42 c2 24 -3 54 -12 72
-19 36 -99 85 -167 101 -43 11 -48 14 -54 48 -9 46 -67 103 -122 120 -54 16
-149 14 -198 -3 -39 -15 -40 -15 -65 14 -110 126 -298 174 -462 118 l-67 -23
-12 29 c-16 37 -81 85 -128 93 -20 3 -43 7 -51 9 -8 1 -31 -1 -50 -4z m-109
-1563 c6 -11 8 -22 5 -25 -8 -9 -46 27 -46 43 0 19 28 6 41 -18z m89 -7 c5
-11 10 -30 10 -42 0 -22 -2 -21 -35 11 -19 19 -35 38 -35 42 0 17 50 7 60 -11z
m450 1 c0 -9 -25 -33 -47 -46 -9 -5 -11 -2 -8 8 3 9 7 23 10 31 5 16 45 21 45
7z m-70 -20 c0 -26 -28 -62 -57 -73 -14 -5 -28 -7 -30 -5 -3 3 3 25 12 50 15
40 22 46 46 46 21 0 29 -5 29 -18z m913 -397 c40 -28 61 -62 83 -135 8 -26 21
-53 29 -60 14 -12 44 -99 63 -187 9 -39 8 -41 -11 -37 -12 2 -35 -5 -53 -15
-23 -14 -35 -16 -43 -8 -8 8 -11 6 -11 -9 0 -14 -2 -16 -9 -5 -5 7 -14 11 -20
7 -7 -5 -9 3 -4 26 6 29 4 31 -9 21 -8 -7 -17 -10 -21 -7 -3 3 -15 -4 -28 -17
-22 -22 -23 -22 -30 -3 -7 19 -7 19 -15 0 -6 -16 -9 -16 -18 -5 -6 8 -24 23
-40 33 l-29 18 5 -31 c4 -24 2 -28 -9 -20 -10 9 -13 8 -13 -1 0 -10 -3 -10
-14 -1 -10 9 -16 9 -21 1 -10 -17 -34 19 -36 55 l-2 30 -4 -27 c-4 -28 -23
-40 -23 -15 0 6 -5 4 -11 -5 -5 -10 -17 -18 -26 -18 -13 0 -15 8 -10 44 4 24
13 59 21 77 7 19 21 60 30 91 9 32 21 60 25 63 5 2 20 -4 34 -15 36 -28 51
-26 44 8 -5 24 -2 30 24 39 16 7 29 19 29 28 0 19 37 85 54 97 18 12 29 9 69
-17z m583 -198 c1 -1 14 -31 28 -66 40 -100 44 -145 11 -128 -3 1 -17 -16 -32
-37 -27 -37 -28 -38 -32 -15 -3 23 -4 23 -12 4 -6 -17 -8 -15 -8 10 l-1 30
-18 -28 -19 -27 -11 22 c-10 21 -11 22 -12 3 l-1 -20 -9 20 c-6 13 -9 15 -9 5
-1 -13 -3 -13 -10 -1 -12 19 -51 22 -76 5 -27 -19 -35 -17 -36 9 0 21 -1 21
-9 2 -8 -19 -9 -19 -9 -1 -1 11 -9 29 -20 40 -18 21 -44 104 -36 116 3 4 35
10 72 13 38 3 97 17 133 31 53 20 104 26 116 13z m-1056 -112 c14 -8 40 -14
58 -15 27 0 32 -4 32 -22 -1 -29 -32 -91 -45 -90 -5 0 -13 11 -17 24 -6 22 -6
21 -7 -4 -1 -27 -2 -27 -21 -11 -24 21 -59 27 -76 12 -19 -16 -18 14 2 74 17
51 31 57 74 32z m723 -129 l-6 -28 -13 32 c-8 18 -14 46 -14 64 l1 31 18 -35
c12 -22 17 -46 14 -64z m57 22 c0 -5 -4 -8 -10 -8 -5 0 -10 10 -10 23 0 18 2
19 10 7 5 -8 10 -18 10 -22z m413 12 c3 -10 -2 -25 -10 -31 -12 -11 -13 -8 -9
17 7 43 11 46 19 14z"/>
</g>
</svg>
