<?xml version="1.0" standalone="no"?>
<!DOCTYPE svg PUBLIC "-//W3C//DTD SVG 20010904//EN"
 "http://www.w3.org/TR/2001/REC-SVG-20010904/DTD/svg10.dtd">
<svg version="1.0" xmlns="http://www.w3.org/2000/svg"
 width="300.000000pt" height="300.000000pt" viewBox="0 0 300.000000 300.000000"
 preserveAspectRatio="xMidYMid meet">
<metadata>
Created by potrace 1.10, written by Peter Selinger 2001-2011
</metadata>
<g transform="translate(0.000000,300.000000) scale(0.100000,-0.100000)"
fill="#000000" stroke="none">
<path d="M2116 2685 c-15 -14 -36 -45 -46 -69 -19 -41 -25 -46 -127 -91 -60
-26 -144 -69 -188 -96 -84 -51 -142 -95 -114 -86 104 33 153 47 156 44 2 -2
-34 -21 -79 -42 -78 -36 -95 -60 -26 -36 17 6 33 9 36 7 2 -3 -21 -12 -52 -22
-63 -20 -76 -37 -18 -23 81 19 70 2 -29 -46 -74 -37 -79 -40 -53 -45 l29 -5
-39 -23 c-43 -25 -44 -38 -2 -22 48 18 52 11 10 -15 -23 -14 -44 -32 -48 -40
-7 -20 -3 -19 45 6 23 11 43 18 46 15 14 -13 -13 -62 -60 -112 -29 -29 -48
-54 -42 -54 7 0 37 9 68 19 32 11 57 18 57 16 0 -1 -40 -33 -90 -70 -49 -37
-90 -68 -90 -70 0 -2 26 -1 58 2 l57 6 -24 -26 c-66 -72 -223 -74 -405 -7 -53
20 -56 23 -42 39 32 35 48 90 36 125 -33 100 -172 134 -323 80 -241 -87 -277
-96 -409 -102 -70 -2 -125 -8 -123 -12 7 -11 150 -31 237 -33 43 -1 78 -5 78
-9 0 -18 -85 -68 -126 -74 -60 -9 -66 -24 -10 -24 75 0 57 -23 -67 -90 -81
-44 -95 -61 -32 -40 20 7 39 10 41 7 3 -3 -33 -31 -81 -62 -47 -32 -84 -59
-83 -61 8 -8 133 28 181 52 l52 26 -40 -42 c-50 -51 -91 -77 -169 -106 -76
-28 -59 -37 58 -33 99 5 99 5 -69 -83 -125 -66 -113 -79 23 -24 81 33 83 33
60 9 -13 -14 -65 -57 -117 -96 -111 -85 -102 -102 21 -38 43 23 81 41 85 41 4
0 -13 -21 -37 -47 -38 -39 -40 -44 -15 -28 151 92 295 212 376 313 l34 44 -3
-79 c-2 -52 3 -102 16 -151 24 -92 20 -95 -107 -102 l-96 -5 -6 -100 c-7 -105
-36 -238 -92 -420 l-34 -110 56 -64 56 -64 -2 -67 -3 -67 38 -7 c54 -9 202 -7
202 2 0 5 -14 21 -31 38 -46 42 -107 140 -125 198 -43 145 4 353 103 448 45
43 79 58 134 58 39 0 40 -1 37 -32 -3 -33 -2 -34 154 -123 159 -91 213 -132
229 -172 7 -19 12 -21 38 -13 39 11 45 2 51 -79 l5 -65 65 -44 c36 -24 77 -56
92 -70 15 -14 30 -23 33 -20 4 3 -8 64 -24 136 -17 71 -31 143 -31 160 0 42
-30 63 -215 152 -130 63 -147 74 -125 81 14 4 43 7 65 8 52 1 110 18 124 35 7
8 17 42 23 75 6 34 16 61 20 61 5 0 42 -13 81 -29 40 -17 92 -35 117 -41 54
-14 169 -15 229 -1 53 11 105 -5 270 -88 l103 -52 -6 -52 c-4 -29 -10 -70 -13
-92 l-6 -40 29 26 c32 29 105 79 115 79 4 0 20 -24 37 -53 25 -44 39 -57 89
-80 75 -34 99 -60 143 -150 26 -53 41 -73 59 -77 17 -4 29 -20 48 -67 l25 -62
81 -25 c145 -44 141 -43 133 -10 -12 47 -51 107 -149 225 -346 420 -337 406
-314 460 8 19 46 74 85 122 111 139 127 208 56 249 -37 22 -190 43 -251 34
-42 -5 -43 -5 -43 23 0 33 -24 152 -74 366 -43 181 -56 272 -45 303 8 22 10
22 46 7 21 -8 56 -34 78 -58 38 -39 43 -42 92 -41 37 1 66 9 97 28 55 32 58
38 58 87 -1 56 -9 74 -37 87 -23 11 -128 158 -153 214 -6 16 -30 48 -52 72
-36 38 -39 46 -31 72 10 32 24 134 18 134 -2 0 -19 -22 -38 -50 -19 -27 -37
-50 -41 -50 -10 0 -21 67 -15 90 7 27 -5 25 -37 -5z"/>
</g>
</svg>
