<?xml version="1.0" encoding="UTF-8" standalone="no"?>
<!-- Created with Inkscape (http://www.inkscape.org/) -->
<svg
   xmlns:dc="http://purl.org/dc/elements/1.1/"
   xmlns:cc="http://creativecommons.org/ns#"
   xmlns:rdf="http://www.w3.org/1999/02/22-rdf-syntax-ns#"
   xmlns:svg="http://www.w3.org/2000/svg"
   xmlns="http://www.w3.org/2000/svg"
   xmlns:sodipodi="http://sodipodi.sourceforge.net/DTD/sodipodi-0.dtd"
   xmlns:inkscape="http://www.inkscape.org/namespaces/inkscape"
   width="400"
   height="354.47058"
   id="svg2"
   sodipodi:version="0.32"
   inkscape:version="0.46"
   version="1.0"
   sodipodi:docname="horse.svg"
   inkscape:output_extension="org.inkscape.output.svg.inkscape"
   inkscape:export-filename="C:\SABROG\MyGUI_skins\horse.png"
   inkscape:export-xdpi="28.690676"
   inkscape:export-ydpi="28.690676">
  <defs
     id="defs4">
    <filter
       inkscape:collect="always"
       id="filter3406">
      <feGaussianBlur
         inkscape:collect="always"
         stdDeviation="1.0592268"
         id="feGaussianBlur3408" />
    </filter>
  </defs>
  <sodipodi:namedview
     id="base"
     pagecolor="#ffffff"
     bordercolor="#666666"
     borderopacity="1.0"
     gridtolerance="10000"
     guidetolerance="10"
     objecttolerance="10"
     inkscape:pageopacity="0"
     inkscape:pageshadow="2"
     inkscape:zoom="1.1242768"
     inkscape:cx="-42.477399"
     inkscape:cy="172.46255"
     inkscape:document-units="px"
     inkscape:current-layer="layer1"
     showgrid="false"
     borderlayer="false"
     inkscape:window-width="1280"
     inkscape:window-height="952"
     inkscape:window-x="-4"
     inkscape:window-y="-4"
     showborder="false" />
  <metadata
     id="metadata7">
    <rdf:RDF>
      <cc:Work
         rdf:about="">
        <dc:format>image/svg+xml</dc:format>
        <dc:type
           rdf:resource="http://purl.org/dc/dcmitype/StillImage" />
        <dc:title>Fire Horse</dc:title>
        <dc:date>21.08.2008</dc:date>
        <dc:creator>
          <cc:Agent>
            <dc:title>SABROG</dc:title>
          </cc:Agent>
        </dc:creator>
        <dc:source>Russian Federation</dc:source>
        <dc:language>Russian, English</dc:language>
        <dc:subject>
          <rdf:Bag>
            <rdf:li>Horse</rdf:li>
          </rdf:Bag>
        </dc:subject>
      </cc:Work>
    </rdf:RDF>
  </metadata>
  <g
     inkscape:label="Layer 1"
     inkscape:groupmode="layer"
     id="layer1"
     transform="translate(0,-389.62392)">
    <path
       style="fill:#000000;fill-opacity:1;fill-rule:evenodd;stroke:#f11414;stroke-width:3.0999999;stroke-linecap:butt;stroke-linejoin:miter;stroke-miterlimit:4;stroke-dasharray:none;stroke-opacity:1;filter:url(#filter3406)"
       d="M 258.64331,323.97305 C 305.198,344.76505 366.67968,359.55976 395.99922,323.4908 C 386.63555,318.22387 375.92005,322.4198 365.78616,322.54448 C 396.25157,300.6457 423.35462,280.14496 414.89599,279.87065 C 408.23745,286.7707 389.97834,290.19057 375.33364,294.69477 C 380.24005,292.92996 417.82249,258.40009 406.71399,248.35075 C 401.23407,243.39332 378.95886,262.88617 382.28936,256.82832 C 388.95036,244.71263 407.56383,241.70787 406.30102,237.18817 C 405.13705,233.02223 384.12762,242.62934 383.59129,240.52135 L 414.65652,222.52053 L 389.76139,225.66752 C 391.68489,224.12048 440.56716,202.68262 435.43294,199.58049 C 427.29061,195.98756 398.65156,205.3882 409.97193,201.14948 C 417.58046,198.3006 437.88689,193.52034 446.08223,185.10949 C 451.68328,179.36114 420.20523,194.79581 414.42641,192.22506 C 412.49319,191.32061 460.47738,172.37458 463.96453,167.22325 C 443.48864,167.98055 426.16389,177.0032 410.58054,181.83762 C 467.6928,139.6691 497.24801,134.99117 526.18253,119.61632 C 530.38717,105.44727 537.69342,90.861161 552.4765,82.106824 C 549.71609,92.08327 551.46734,106.1212 555.13546,116.90121 C 563.0298,107.15732 571.45579,99.00837 577.7234,84.38428 C 575.6389,99.646352 577.64153,116.43123 568.24694,130.06884 C 602.50028,157.24616 595.07424,166.22137 598.13428,169.10689 C 611.8413,182.03215 626.3145,221.90878 643.63588,221.44125 C 643.75996,221.4379 653.2103,248.34971 643.83405,256.75917 C 618.55109,279.43521 591.78408,273.97954 588.64331,269.68733 C 573.21314,248.60029 563.75755,244.77803 550.07188,242.54448 C 523.03183,242.67004 595.49498,440.43065 573.63588,440.64852 C 573.63588,440.64852 664.05756,431.37002 670.07188,460.83514 C 677.87121,499.04532 598.71682,540.5654 621.38814,570.6221 C 693.22769,665.86396 746.20777,710.41011 747.21474,742.54448 L 690.07188,725.40162 L 676.23869,690.39419 C 646.18595,693.91667 667.05397,644.54397 609.20814,625.72697 C 599.16467,623.9789 590.67029,608.28905 582.33448,591.17206 C 569.84222,594.0344 551.58202,608.54917 541.61276,618.98048 C 543.93158,601.66847 547.64269,589.5357 548.31796,569.75835 C 518.16801,555.09132 488.63778,538.25526 456.87452,529.23481 C 385.94402,548.39632 356.4399,518.45422 328.9125,512.16297 C 320.19186,510.16991 325.46247,530.03764 318.17592,545.72697 C 310.25254,562.78752 275.84072,556.82107 254.35759,562.54448 C 289.23846,584.62754 355.47189,609.08348 355.65899,618.4008 C 356.29331,649.98789 370.55052,678.59875 372.60367,706.88635 C 359.54292,695.47601 348.91051,685.85642 323.25437,671.18692 C 320.95029,670.41889 322.14085,635.33598 317.21474,629.68733 C 313.15427,625.03129 297.89104,632.82441 297.89104,632.82441 C 296.42693,604.20498 227.08615,580.27399 190.07188,553.97305 L 194.35759,536.83019 C 132.49383,526.90966 108.96028,599.02886 109.23561,645.86402 C 109.49164,689.41775 141.49176,727.19758 157.73827,740.33803 C 160.07079,742.22461 93.055,742.85941 93.18335,736.88635 C 93.46262,723.89037 100.2132,712.65929 92.02399,697.35373 L 64.88113,668.85331 C 63.58143,659.44155 104.88194,567.73193 100.07188,498.25876 C 99.30008,487.11144 155.9171,507.0634 161.50045,483.97305 C 152.36121,458.65588 146.06084,425.27772 155.78616,393.95819 C 118.87086,450.81521 75.739,476.58942 32.92902,503.97305 C 43.55924,493.80977 55.29776,484.20063 62.68129,472.41401 C 24.52559,494.56656 8.07491,503.72326 1.55,501.29096 C 24.04876,482.28353 51.53838,466.27062 69.04628,444.26867 C 45.12596,454.10311 16.64303,468.50017 3.98104,467.07627 C 32.32209,452.79642 62.78087,440.02923 85.46742,421.71045 C 61.93846,430.92682 41.35759,427.36815 20.3163,425.80459 C 60.61303,418.10653 85.83787,393.90117 108.11152,366.46355 C 77.43148,391.88511 53.67327,395.67598 29.75148,399.97801 C 49.61666,387.78669 71.51915,375.93493 81.45958,362.08948 L 51.17923,371.0515 C 71.677,358.1449 102.30709,348.43799 108.09294,330.88552 L 78.96267,330.97428 C 96.17377,325.79525 111.9834,330.7769 132.39589,302.38779 C 98.60243,305.62045 68.69054,301.08998 40.07188,293.97305 C 110.16205,292.89255 110.94118,294.15344 198.96205,260.42391 C 255.52041,243.61638 303.19263,287.69146 258.64331,323.97305 z"
       id="path3304"
       sodipodi:nodetypes="cccccsssccccssccccccccsssscsssccccccccsscsccssccssscssccccccccccccccccccc"
       transform="matrix(0.5342132,0,0,0.5342132,-1.9104952e-8,346.5894)" />
  </g>
</svg>
