<?xml version="1.0" standalone="no"?>
<!DOCTYPE svg PUBLIC "-//W3C//DTD SVG 20010904//EN"
 "http://www.w3.org/TR/2001/REC-SVG-20010904/DTD/svg10.dtd">
<svg version="1.0" xmlns="http://www.w3.org/2000/svg"
 width="1920.000000pt" height="478.000000pt" viewBox="0 0 1920.000000 478.000000"
 preserveAspectRatio="xMidYMid meet">

<g transform="translate(0.000000,478.000000) scale(0.100000,-0.100000)"
fill="#000000" stroke="none">
<path d="M9500 3502 c-18 -14 -21 -25 -17 -44 9 -34 94 -128 117 -128 23 0
108 94 117 128 11 43 -25 62 -117 62 -60 0 -83 -4 -100 -18z"/>
<path d="M9413 3310 c-47 -19 -67 -115 -42 -200 15 -50 73 -126 127 -167 24
-18 47 -33 50 -33 4 0 7 46 7 102 1 57 5 126 9 154 11 67 -8 105 -67 133 -48
23 -52 24 -84 11z"/>
<path d="M9702 3299 c-58 -29 -77 -67 -66 -133 4 -28 8 -97 9 -154 0 -56 3
-102 7 -102 16 0 96 70 129 114 42 55 59 104 59 170 0 57 -22 104 -56 116 -33
13 -32 13 -82 -11z"/>
<path d="M9048 3048 c-47 -13 -113 -69 -140 -122 -49 -92 -19 -218 64 -273 83
-55 204 -28 243 53 27 58 5 91 -57 85 -10 -1 -26 3 -38 9 -50 27 1 87 66 77
91 -15 156 -103 157 -211 0 -34 -7 -78 -16 -101 l-17 -40 39 42 c39 43 71 128
71 189 0 48 -27 133 -55 175 -65 99 -199 148 -317 117z"/>
<path d="M9983 3041 c-98 -34 -162 -102 -189 -202 -18 -70 -18 -100 2 -171 11
-39 30 -73 55 -101 l39 -42 -17 40 c-53 131 19 292 141 312 65 10 116 -50 66
-77 -12 -6 -28 -10 -38 -9 -62 6 -84 -27 -57 -85 39 -81 160 -108 243 -53 57
37 86 96 86 172 0 73 -26 128 -84 178 -67 57 -154 71 -247 38z"/>
<path d="M8363 2809 c-170 -33 -267 -188 -219 -352 53 -181 256 -285 456 -233
30 8 56 13 57 12 1 -1 -23 -18 -54 -36 -75 -46 -176 -79 -238 -80 -108 0 -225
51 -299 130 -54 57 -78 104 -117 223 -16 50 -37 99 -46 109 -36 40 -88 9 -114
-69 -17 -52 -6 -186 20 -252 113 -284 456 -406 731 -261 74 40 29 2 -62 -51
-211 -124 -460 -189 -718 -189 -405 0 -724 152 -738 352 -14 192 205 286 336
145 59 -65 68 -148 19 -182 -35 -25 -66 -18 -102 21 -38 41 -65 42 -79 3 -34
-98 88 -215 203 -194 143 27 229 163 200 319 -14 76 -39 127 -96 187 -87 93
-195 135 -323 126 -141 -9 -255 -89 -322 -224 -31 -63 -33 -74 -33 -168 0 -92
3 -105 32 -168 78 -164 269 -279 537 -322 107 -17 327 -20 429 -4 102 15 260
57 342 91 100 42 108 43 41 8 -328 -175 -818 -234 -1235 -149 -229 46 -519
169 -677 286 -147 110 -222 209 -297 394 -46 113 -65 133 -95 106 -52 -47 -54
-201 -5 -328 111 -287 423 -504 864 -603 528 -118 1123 7 1551 327 50 37 84
58 75 45 -10 -13 -26 -40 -37 -61 -38 -69 -269 -204 -475 -277 -512 -180
-1086 -140 -1800 125 -181 67 -411 167 -817 354 -627 289 -958 415 -1258 478
-108 23 -149 27 -300 27 -160 0 -183 -2 -273 -27 -292 -81 -505 -277 -562
-519 -66 -279 74 -567 313 -647 207 -70 462 30 554 217 30 60 33 75 33 157 0
76 -4 98 -26 146 -82 175 -300 276 -428 198 -47 -28 -40 -46 21 -54 77 -9 150
-48 203 -107 92 -102 94 -210 5 -299 -74 -74 -196 -103 -294 -70 -93 32 -171
149 -183 273 -12 129 28 230 133 335 119 121 268 180 474 190 311 15 661 -89
1530 -452 762 -319 1079 -421 1520 -490 139 -22 507 -31 636 -16 321 38 604
138 847 300 58 39 107 71 109 71 1 0 3 -37 3 -83 1 -69 5 -90 27 -132 72 -137
222 -193 354 -131 89 41 154 145 142 226 -5 36 1 38 31 6 56 -59 217 -116 331
-116 152 0 300 74 300 150 0 49 -19 55 -184 56 -129 1 -160 4 -211 23 -184 66
-295 224 -295 415 0 115 19 156 129 275 53 56 119 116 146 133 28 16 41 27 30
25 -11 -3 -33 -8 -50 -12 -16 -3 -82 -30 -145 -60 -158 -73 -231 -96 -331
-102 -128 -8 -196 22 -239 108 -32 62 -25 101 21 124 69 36 130 -1 144 -87 17
-109 43 -138 94 -101 95 69 92 254 -5 345 -58 54 -161 83 -241 67z m307 -759
c0 -12 -13 -26 -30 -35 -34 -18 -40 -7 -10 20 11 10 20 24 20 32 0 8 5 11 10
8 6 -3 10 -15 10 -25z m3 -123 c5 -55 18 -98 52 -179 6 -15 1 -16 -48 -11 -97
10 -122 -30 -72 -112 42 -68 27 -105 -42 -105 -63 0 -103 62 -103 157 0 47 7
73 31 123 31 62 154 204 169 195 4 -2 10 -33 13 -68z"/>
<path d="M10733 2810 c-127 -26 -212 -126 -213 -250 0 -130 117 -239 149 -137
5 18 13 51 16 75 14 86 75 123 144 87 46 -23 53 -62 21 -124 -43 -86 -111
-116 -239 -108 -100 6 -172 28 -331 102 -113 52 -125 57 -185 69 -25 6 -21 2
20 -23 28 -16 93 -76 146 -132 110 -119 129 -160 129 -275 0 -191 -111 -349
-295 -415 -51 -19 -82 -22 -211 -23 -165 -1 -184 -7 -184 -56 0 -76 148 -150
300 -150 114 0 275 57 331 116 30 32 36 30 31 -6 -12 -81 53 -185 142 -226
132 -62 282 -6 354 131 22 42 26 63 27 132 0 46 2 83 3 83 2 0 51 -32 109 -71
243 -162 526 -262 847 -300 129 -15 497 -6 636 16 441 69 758 171 1520 490
696 291 1048 410 1325 446 110 14 298 7 380 -15 118 -32 222 -90 299 -169 105
-105 145 -206 133 -335 -12 -124 -90 -241 -183 -273 -141 -47 -320 37 -353
165 -34 134 99 290 267 311 61 8 68 26 21 54 -128 78 -346 -23 -428 -198 -22
-48 -26 -70 -26 -146 0 -82 3 -97 33 -157 92 -187 347 -287 554 -217 239 80
379 368 313 647 -57 242 -270 438 -562 519 -90 25 -113 27 -273 27 -151 0
-192 -4 -300 -27 -300 -63 -631 -189 -1258 -478 -406 -187 -636 -287 -817
-354 -714 -265 -1288 -305 -1800 -125 -206 73 -437 208 -475 277 -11 21 -27
48 -37 61 -9 13 25 -8 75 -45 545 -407 1316 -486 1928 -199 241 114 411 279
487 475 49 127 47 281 -5 328 -30 27 -49 7 -95 -106 -52 -129 -93 -198 -163
-274 -81 -89 -197 -170 -349 -246 -424 -209 -894 -256 -1362 -136 -114 29
-253 81 -335 125 -67 35 -59 34 41 -8 82 -34 240 -76 342 -91 102 -16 322 -13
429 4 268 43 459 158 537 322 29 63 32 76 32 168 0 94 -2 105 -33 168 -67 135
-181 215 -322 224 -128 9 -236 -33 -323 -126 -57 -60 -82 -111 -96 -187 -29
-156 57 -292 200 -319 115 -21 237 96 203 194 -14 39 -41 38 -79 -3 -36 -39
-67 -46 -102 -21 -49 34 -40 117 19 182 131 141 350 47 336 -145 -14 -200
-333 -352 -738 -352 -258 0 -507 65 -718 189 -91 53 -136 91 -62 51 325 -172
733 38 757 390 8 117 -28 210 -81 210 -35 0 -52 -27 -86 -129 -39 -122 -73
-181 -130 -235 -114 -106 -261 -141 -401 -93 -55 19 -183 86 -176 93 1 1 27
-4 57 -12 224 -58 442 75 467 285 21 182 -151 337 -334 301z m-159 -779 c27
-22 18 -33 -14 -16 -17 9 -30 24 -30 34 0 26 13 35 21 14 4 -10 14 -25 23 -32z
m134 -231 c65 -130 27 -280 -71 -280 -69 0 -84 37 -42 105 50 82 25 122 -72
112 -49 -5 -54 -4 -48 11 33 78 46 120 51 169 3 32 8 65 11 73 8 24 135 -116
171 -190z"/>
<path d="M9163 2419 c-55 -10 -91 -30 -129 -71 -52 -55 -68 -95 -68 -173 0
-158 103 -272 254 -283 61 -4 76 -1 126 23 125 61 162 219 74 319 -71 80 -220
66 -220 -21 0 -10 17 -33 37 -50 l38 -33 -25 -21 c-33 -28 -76 -19 -117 25
-89 96 -21 237 127 265 42 7 43 8 18 14 -54 13 -74 14 -115 6z"/>
<path d="M9965 2423 c-69 -13 -71 -16 -25 -24 148 -28 216 -169 127 -265 -41
-44 -84 -53 -117 -25 l-25 21 38 33 c56 48 47 97 -23 118 -55 17 -121 -3 -160
-47 -88 -100 -51 -258 74 -319 50 -24 65 -27 126 -23 151 11 254 125 254 283
0 83 -22 133 -82 187 -49 44 -132 72 -187 61z"/>
</g>
</svg>
