<?xml version="1.0" standalone="no"?>
<!DOCTYPE svg PUBLIC "-//W3C//DTD SVG 20010904//EN"
 "http://www.w3.org/TR/2001/REC-SVG-20010904/DTD/svg10.dtd">
<svg version="1.0" xmlns="http://www.w3.org/2000/svg"
 width="1280.000000pt" height="640.000000pt" viewBox="0 0 1280.000000 640.000000"
 preserveAspectRatio="xMidYMid meet">
<g transform="translate(0.000000,640.000000) scale(0.100000,-0.100000)"
fill="#000000" stroke="none">
<path d="M4960 4789 c-299 -224 -594 -538 -694 -736 -61 -122 -87 -307 -54
-383 8 -19 31 -54 51 -78 l36 -42 -54 -114 c-29 -62 -63 -141 -76 -175 -25
-71 -26 -71 -147 -101 -307 -76 -669 -64 -867 29 -85 40 -158 100 -337 278
-117 116 -155 160 -147 169 14 18 163 114 176 114 6 0 30 -9 54 -20 26 -11 66
-20 96 -20 69 0 192 64 323 167 88 70 450 428 450 446 0 4 -33 5 -72 2 -277
-20 -617 -138 -783 -272 -81 -66 -97 -97 -99 -190 l-1 -75 -102 -70 -103 -70
-86 31 c-125 45 -244 63 -419 63 -286 0 -612 -59 -1062 -192 -92 -28 -173 -50
-180 -50 -7 0 -21 -5 -31 -10 -9 -6 -114 -43 -232 -84 -118 -40 -297 -104
-398 -142 -177 -67 -183 -70 -178 -94 8 -43 46 -120 59 -120 7 0 100 35 207
78 261 105 584 223 810 294 190 60 497 141 584 153 44 7 51 5 68 -16 19 -23
19 -23 13 -2 -8 30 12 39 120 51 222 27 383 23 520 -13 139 -36 194 -72 373
-248 92 -89 193 -180 225 -200 63 -42 178 -93 232 -103 19 -3 38 -11 43 -18 8
-9 65 -140 125 -287 8 -22 5 -37 -26 -99 -44 -87 -47 -138 -17 -249 32 -115
96 -228 190 -334 140 -158 568 -528 578 -499 2 6 -8 54 -22 108 -14 55 -36
157 -50 228 -36 181 -137 470 -227 648 -49 97 -175 181 -292 194 -44 5 -62 12
-72 28 -29 47 -106 239 -98 246 4 4 58 3 118 -2 78 -7 150 -7 247 1 315 26
521 91 1013 321 142 66 263 120 270 120 7 0 45 -15 86 -34 41 -19 122 -51 182
-71 95 -33 108 -41 113 -64 25 -114 36 -135 102 -201 51 -51 88 -77 152 -107
152 -73 191 -78 555 -77 326 2 418 9 595 50 l74 17 -27 21 c-14 11 -104 68
-199 125 -95 58 -205 126 -243 152 -137 91 -384 201 -554 245 -112 29 -132 29
-220 5 -82 -23 -123 -43 -178 -87 -23 -19 -46 -34 -52 -34 -29 0 -261 93 -261
105 0 23 292 116 457 145 193 34 318 30 603 -15 169 -28 576 -113 623 -130 7
-3 59 -55 116 -116 100 -108 102 -111 94 -147 -12 -60 -6 -126 14 -173 11 -24
53 -80 94 -123 139 -149 294 -244 519 -319 58 -19 134 -49 170 -66 36 -16 85
-33 109 -37 l44 -7 -40 54 c-23 30 -53 79 -68 109 -52 104 -223 337 -356 485
-62 69 -85 87 -168 128 l-96 49 -97 -6 -97 -5 -55 60 c-55 59 -66 79 -46 79 6
0 104 -22 218 -49 114 -27 284 -66 377 -86 94 -20 204 -45 245 -55 164 -42
266 -53 500 -52 154 1 263 7 345 18 66 10 136 17 155 16 19 0 37 3 40 8 3 5
59 25 125 45 163 50 312 107 635 245 477 204 580 244 770 301 69 21 118 38
110 38 -32 1 -211 -48 -327 -90 -67 -24 -125 -40 -129 -36 -4 4 6 22 23 40 41
43 146 187 141 193 -7 6 -194 -72 -245 -102 -53 -31 -97 -88 -112 -148 -21
-83 -47 -98 -431 -251 -457 -182 -694 -235 -1056 -235 -144 0 -191 9 -126 24
169 41 592 221 577 246 -3 6 -25 10 -48 10 -23 0 -116 9 -206 19 -124 14 -181
17 -235 10 -205 -26 -249 -46 -292 -132 -15 -28 -31 -55 -37 -59 -6 -3 -52
-16 -102 -27 l-91 -21 -194 45 c-107 25 -305 74 -440 110 -513 135 -660 169
-933 215 -93 15 -171 30 -174 34 -10 10 16 33 111 96 l94 61 39 -23 c64 -40
91 -48 158 -48 125 0 274 66 434 193 203 161 629 566 604 574 -7 3 -88 -4
-180 -16 -93 -11 -212 -25 -267 -31 -54 -7 -154 -27 -222 -46 -273 -74 -443
-162 -528 -272 -62 -82 -76 -118 -76 -202 l0 -70 -157 -105 c-135 -90 -164
-105 -198 -105 -77 0 -322 -41 -480 -80 -232 -58 -317 -88 -583 -207 -318
-142 -525 -224 -535 -214 -5 5 16 69 48 145 64 151 49 138 172 150 175 17 310
200 422 576 41 139 165 709 159 736 -2 10 -31 -6 -98 -57z m4890 -1099 c0 -5
-5 -10 -11 -10 -5 0 -7 5 -4 10 3 6 8 10 11 10 2 0 4 -4 4 -10z m-1800 -372
c27 -18 50 -37 50 -42 0 -9 -72 -2 -153 16 -57 12 -57 28 -1 45 54 16 48 17
104 -19z"/>
<path d="M10965 3964 c-11 -2 -55 -6 -98 -9 -42 -4 -75 -11 -71 -16 3 -5 15
-9 27 -9 12 0 43 -15 69 -34 27 -18 66 -36 88 -40 36 -6 180 17 205 32 5 3
-20 15 -55 26 -36 12 -64 26 -62 31 5 17 -50 27 -103 19z"/>
<path d="M11228 3953 c7 -3 16 -2 19 1 4 3 -2 6 -13 5 -11 0 -14 -3 -6 -6z"/>
<path d="M10728 3933 c7 -3 16 -2 19 1 4 3 -2 6 -13 5 -11 0 -14 -3 -6 -6z"/>
<path d="M10668 3923 c7 -3 16 -2 19 1 4 3 -2 6 -13 5 -11 0 -14 -3 -6 -6z"/>
<path d="M10608 3913 c7 -3 16 -2 19 1 4 3 -2 6 -13 5 -11 0 -14 -3 -6 -6z"/>
<path d="M10558 3903 c7 -3 16 -2 19 1 4 3 -2 6 -13 5 -11 0 -14 -3 -6 -6z"/>
<path d="M10508 3893 c6 -2 18 -2 25 0 6 3 1 5 -13 5 -14 0 -19 -2 -12 -5z"/>
<path d="M11848 3829 c18 -15 163 -78 153 -66 -13 16 -5 27 21 27 23 0 23 16
1 25 -22 10 -185 22 -175 14z"/>
<path d="M805 3738 c-18 -51 -24 -113 -15 -147 10 -37 45 -80 56 -68 17 16 14
89 -5 155 -22 73 -28 82 -36 60z"/>
<path d="M1789 3492 c9 -17 10 -31 2 -54 -18 -52 -13 -144 10 -191 36 -71 367
-383 386 -363 2 2 -9 44 -26 92 -16 49 -37 113 -46 143 -27 89 -103 230 -152
282 -31 33 -63 55 -101 69 -31 12 -63 27 -71 33 -12 10 -12 9 -2 -11z"/>
<path d="M8920 3265 c-19 -9 -36 -18 -38 -20 -2 -2 11 -18 30 -35 77 -71 174
-98 291 -80 98 14 177 32 177 39 0 3 -58 28 -128 55 -109 42 -139 50 -212 53
-62 2 -94 -1 -120 -12z"/>
</g>
</svg>
